<?xml version="1.0" standalone="no"?>
<!DOCTYPE svg PUBLIC "-//W3C//DTD SVG 20010904//EN"
 "http://www.w3.org/TR/2001/REC-SVG-20010904/DTD/svg10.dtd">
<svg version="1.0" xmlns="http://www.w3.org/2000/svg"
 width="1080.000000pt" height="1080.000000pt" viewBox="0 0 1080.000000 1080.000000"
 preserveAspectRatio="xMidYMid meet">

<g transform="translate(0.000000,1080.000000) scale(0.100000,-0.100000)"
fill="#000000" stroke="none">
<path d="M1015 6606 c-121 -54 -134 -228 -22 -296 68 -42 181 -19 222 44 92
140 -51 319 -200 252z"/>
<path d="M5698 6260 c-47 -25 -78 -76 -78 -129 l0 -41 -52 0 c-29 -1 -626 -5
-1327 -10 -1244 -8 -1274 -8 -1305 11 -42 26 -130 26 -173 -1 -31 -19 -66 -19
-1398 -26 -1307 -7 -1365 -8 -1365 -25 0 -10 6 -17 13 -15 6 3 616 7 1353 11
l1342 6 -15 -43 c-26 -76 5 -156 75 -196 72 -40 152 -24 210 42 28 33 32 43
32 97 0 33 -4 68 -10 78 -9 18 8 19 393 25 221 3 812 8 1314 10 l912 5 21 -35
c60 -96 214 -98 276 -4 l25 37 502 6 c721 10 3214 18 3200 11 -7 -3 -13 -12
-13 -20 0 -22 22 -16 60 16 l35 30 -35 30 c-39 33 -60 38 -60 15 0 -8 5 -15
10 -15 6 0 10 -4 10 -8 0 -5 -611 -12 -1357 -15 -747 -4 -1579 -10 -1850 -14
l-491 -6 -7 45 c-4 25 -15 60 -26 77 -39 65 -147 90 -221 51z"/>
</g>
</svg>
